.
 
http://www.scenetime.com    -  Hottest private tracker on the net. !!!

New release on http://www.scenetime.com

        Seed back for speed


...................................NFO:.................................................                                                                                                     
       
     
     
       
       
     
     
                                         
                                         
                EXVID                    
                                         
         
                                         
         Filled the Archives             
                                         
         
                                         
                With:                    
                                         
         
                                         
                                    
     E240                           
                                    
     SP               (C) 2009      
                                         
     
     
     
                                                                                  
                                                                                   
       Memento.2000.Chronological.Version.RETAIL.DVDRip.XviD-EXViD                  
                                                                                   
                                                                                  
     
                                                                                               
EXViD aims to iNTERNAL those releases which have been lost in the archives.
EXViD aims to PRE non-internal releases which have poor sources and are likely skipped by others.
 
http://www.imdb.com/title/tt0209144/
Subtitles: None
Date: 2011.09

Director: Christopher Nolan

Genres: Crime | Drama | Mystery | Thriller

Plot:
Memento chronicles two separate stories of Leonard, an ex-insurance investigator who can no
longer build new memories, as he attempts to find the murderer of his wife, which is the last
thing he remembers. One story line moves forward in time while the other tells the story
backwards revealing more each time. 

Cast:
Guy Pearce 	 ... 	 Leonard Shelby
Carrie-Anne Moss 	 ... 	 Natalie
Joe Pantoliano 	 ... 	 Teddy Gammell
Mark Boone Junior 	 ... 	 Burt
Russ Fega 	 ... 	 Waiter
Jorja Fox 	 ... 	 Leonard's Wife
Stephen Tobolowsky 	 ... 	 Sammy Jankis
Harriet Sansom Harris 	 ... 	 Mrs. Jankis
Thomas Lennon 	 ... 	 Doctor
Callum Keith Rennie 	 ... 	 Dodd
Kimberly Campbell 	 ... 	 Blonde
Marianne Muellerleile 	 ... 	 Tattooist
Larry Holden 	 ... 	 Jimmy

Stats:
Format                           : AVI
Format/Info                      : Audio Video Interleave
File size                        : 701 MiB
Duration                         : 1h 43mn
Overall bit rate                 : 944 Kbps
Writing application              : Nandub v1.0rc2
Writing library                  : Nandub build 1852/release

Video
ID                               : 0
Format                           : MPEG-4 Visual
Format profile                   : Advanced Simple@L5
Format settings, BVOP            : 2
Format settings, QPel            : No
Format settings, GMC             : No warppoints
Format settings, Matrix          : Default (H.263)
Codec ID                         : XVID
Codec ID/Hint                    : XviD
Duration                         : 1h 43mn
Bit rate                         : 809 Kbps
Width                            : 640 pixels
Height                           : 272 pixels
Display aspect ratio             : 2.35:1
Frame rate                       : 25.000 fps
Color space                      : YUV
Chroma subsampling               : 4:2:0
Bit depth                        : 8 bits
Scan type                        : Progressive
Compression mode                 : Lossy
Bits/(Pixel*Frame)               : 0.186
Stream size                      : 600 MiB (86%)
Writing library                  : XviD 64

Audio
ID                               : 1
Format                           : MPEG Audio
Format version                   : Version 1
Format profile                   : Layer 3
Mode                             : Joint stereo
Mode extension                   : MS Stereo
Codec ID                         : 55
Codec ID/Hint                    : MP3
Duration                         : 1h 43mn
Bit rate mode                    : Variable
Bit rate                         : 128 Kbps
Channel(s)                       : 2 channels
Sampling rate                    : 48.0 KHz
Compression mode                 : Lossy
Stream size                      : 90.9 MiB (13%)
Alignment                        : Aligned on interleaves
Interleave, duration             : 24 ms (0.60 video frame)
Interleave, preload duration     : 144 ms
Writing library                  : LAME3.98r
Encoding settings                : -m j -V 4 -q 3 -lowpass 17 --abr 128




Release notes:
The Chrono Edition rip that VH-PROD did was homemade (as they mentioned in their nfo) and
different from how it appears on the disc, so here's a version ripped straight from retail.

enjoy!

Looking for:
75TB+ Archives
DUTCH/FLEMiSH Archives
                                                                                                    
Greets: CRBS EPiSODE FiCO FLS iLS KLASSiGER LiPSYNC MADE NODLABS RUNNER SPRiNTER      
   

                                                                    ASCII DONE BY XX^NFO 2oo9